<svg width="580" height="117" viewBox="0 0 580 117" fill="none" xmlns="http://www.w3.org/2000/svg">
<path d="M372.423 0L373.118 4.51336L315.389 74.2967L319.388 66.3116H376.248C381.001 66.3116 384.015 65.7908 385.29 64.7493C386.565 63.7077 387.434 61.8561 387.898 59.1944H391.897C391.897 67.0638 391.955 73.1973 392.071 77.595C392.187 81.9926 392.361 85.8694 392.593 89.2255C391.781 88.9941 390.101 88.8783 387.55 88.8783C385.116 88.7626 382.218 88.6469 378.856 88.5312C375.495 88.4154 372.133 88.3576 368.771 88.3576C365.409 88.3576 362.395 88.3576 359.729 88.3576H302V84.7122L372.423 0ZM375.205 0V117H350.861V28.6424L372.423 0H375.205Z" fill="black"/>
<path d="M413.275 107.388C402.661 101.676 394.627 94.6834 389.173 86.4109C383.719 78.1383 380.95 69.2223 380.866 59.6629C380.928 50.0663 383.9 40.4694 389.782 30.8722C395.61 21.3623 402.978 14.1891 411.885 9.35282C420.792 4.5165 430.459 2.17762 440.886 2.33619C451.312 2.49476 461.786 5.40515 472.307 11.0674C482.921 16.7797 490.954 23.7721 496.409 32.0447C501.863 40.3172 504.559 49.2518 504.496 58.8484C504.487 68.3577 501.542 77.911 495.66 87.5082C489.832 97.0181 482.464 104.191 473.557 109.028C464.743 113.914 455.123 116.278 444.696 116.119C434.269 115.961 423.795 113.05 413.275 107.388ZM416.382 102.621C421.689 105.477 427.487 106.219 433.776 104.847C440.158 103.525 446.537 100.287 452.915 95.1332C459.346 89.8925 465.235 82.9097 470.582 74.185C476.036 65.2858 479.485 56.9316 480.928 49.1224C482.371 41.3132 482.02 34.5112 479.877 28.7163C477.879 22.8843 474.32 18.5904 469.2 15.8344C463.893 12.9783 458.048 12.2113 451.666 13.5336C445.284 14.8559 438.878 18.1373 432.447 23.3781C426.163 28.5817 420.347 35.5458 415 44.2705C409.599 53.0825 406.104 61.4116 404.514 69.258C403.071 77.0672 403.348 83.8878 405.346 89.7198C407.489 95.5146 411.168 99.8151 416.382 102.621Z" fill="black"/>
<path d="M559.83 0L560.525 4.51336L502.796 74.2967L506.795 66.3116H563.655C568.408 66.3116 571.422 65.7908 572.697 64.7493C573.972 63.7077 574.841 61.8561 575.305 59.1944H579.305C579.305 67.0638 579.362 73.1973 579.478 77.595C579.594 81.9926 579.768 85.8694 580 89.2255C579.189 88.9941 577.508 88.8783 574.957 88.8783C572.523 88.7626 569.625 88.6469 566.263 88.5312C562.902 88.4154 559.54 88.3576 556.178 88.3576C552.816 88.3576 549.802 88.3576 547.136 88.3576H489.407V84.7122L559.83 0ZM562.612 0V117H538.268V28.6424L559.83 0H562.612Z" fill="black"/>
<path d="M34.7491 117C27.5921 117 21.4239 115.493 16.2445 112.48C11.0651 109.373 7.06283 104.995 4.2377 99.3449C1.41257 93.6011 0 86.7744 0 78.8649C0 70.6729 1.50674 63.6579 4.52021 57.82C7.53369 51.982 11.8185 47.5094 17.3746 44.4021C23.0248 41.2947 29.711 39.7411 37.433 39.7411C43.0833 39.7411 47.9802 40.5885 52.1237 42.2834C56.3614 43.9783 59.6103 46.3323 61.8704 49.3455C64.2247 52.3586 65.4018 55.8897 65.4018 59.9386C65.4018 63.8933 64.1305 67.236 61.5879 69.9667C59.1395 72.6974 55.7022 74.0627 51.2762 74.0627C48.2627 74.0627 45.8142 73.3094 43.9308 71.8028C42.0474 70.2963 41.1057 68.3189 41.1057 65.8707C41.1057 63.4225 41.812 61.3981 43.2245 59.7973C44.6371 58.1024 46.0026 56.5017 47.321 54.9951C48.7335 53.4886 49.4398 51.8408 49.4398 50.0517C49.4398 48.8276 48.9219 47.886 47.886 47.2269C46.9443 46.5678 45.5788 46.2382 43.7896 46.2382C38.4218 46.2382 34.1841 48.9218 31.0765 54.2889C27.9688 59.6561 26.415 66.8594 26.415 75.8988C26.415 85.2207 27.9217 92.377 30.9352 97.3675C34.0429 102.264 38.516 104.712 44.3546 104.712C48.4039 104.712 51.8412 103.582 54.6663 101.322C57.5856 98.9682 60.0812 95.4843 62.1529 90.8704L67.2382 93.554C64.413 101.369 60.2224 107.254 54.6663 111.209C49.2044 115.07 42.5653 117 34.7491 117Z" fill="black"/>
<path d="M73.747 115.023V109.514C77.9847 109.42 80.8569 108.62 82.3637 107.113C83.9646 105.607 84.765 103.017 84.765 99.3449V59.6561C84.765 55.3247 83.9175 52.2174 82.2224 50.3342C80.5273 48.3568 77.7022 47.321 73.747 47.2269V41.7185C77.1372 41.8126 79.6327 41.9068 81.2336 42.001C82.9287 42.0951 84.9063 42.1422 87.1664 42.1422C96.2068 42.1422 103.882 41.4831 110.191 40.1648V97.9325C110.191 102.17 111.274 105.136 113.44 106.831C115.7 108.526 119.702 109.42 125.447 109.514V115.023C123.658 114.928 121.209 114.881 118.102 114.881C115.088 114.787 111.792 114.693 108.214 114.599C104.729 114.505 101.339 114.458 98.0432 114.458C93.0521 114.458 88.2964 114.552 83.7762 114.74C79.3502 114.834 76.0071 114.928 73.747 115.023ZM130.956 71.3791C128.225 71.3791 126.059 70.6729 124.458 69.2605C122.857 67.7539 122.057 65.7766 122.057 63.3284C122.057 61.916 122.292 60.5977 122.763 59.3736C123.234 58.1495 123.705 56.9725 124.176 55.8426C124.646 54.7127 124.882 53.6298 124.882 52.594C124.882 50.4283 123.658 49.3455 121.209 49.3455C119.702 49.3455 118.196 49.7221 116.689 50.4754C115.182 51.2287 113.817 52.3116 112.593 53.724C111.368 55.0422 110.38 56.69 109.626 58.6674L109.485 52.4528C111.463 48.5922 114.288 45.532 117.96 43.2721C121.633 40.9181 125.541 39.7411 129.685 39.7411C134.205 39.7411 137.736 41.1064 140.279 43.8371C142.822 46.5677 144.093 50.3813 144.093 55.2776C144.093 60.174 142.869 64.0817 140.42 67.0006C138.066 69.9196 134.911 71.3791 130.956 71.3791Z" fill="black"/>
<path d="M184.695 117C177.35 117 170.993 115.493 165.626 112.48C160.258 109.373 156.114 104.947 153.195 99.2036C150.276 93.4598 148.816 86.5861 148.816 78.5824C148.816 70.0138 150.417 62.8576 153.619 57.1138C156.915 51.37 161.435 47.0386 167.179 44.1196C173.018 41.2006 179.704 39.7411 187.238 39.7411C194.301 39.7411 200.139 40.9652 204.754 43.4134C209.462 45.8615 212.947 49.628 215.207 54.7127C217.561 59.7973 218.691 66.3415 218.597 74.3452H167.603L167.321 68.978H197.408C197.503 64.3641 197.173 60.3152 196.42 56.8313C195.76 53.2532 194.63 50.4754 193.029 48.498C191.523 46.4265 189.498 45.3907 186.955 45.3907C183.754 45.3907 181.07 47.321 178.904 51.1816C176.738 55.0422 175.467 61.2568 175.09 69.8255L175.372 70.5317C175.278 71.285 175.231 72.0853 175.231 72.9328C175.231 73.7802 175.231 74.9101 175.231 76.3225C175.231 85.1737 176.832 92.1416 180.034 97.2262C183.33 102.217 188.038 104.712 194.159 104.712C198.774 104.712 202.635 103.582 205.743 101.322C208.944 99.0624 211.722 95.5784 214.077 90.8704L219.162 93.554C216.148 101.369 211.722 107.254 205.884 111.209C200.139 115.07 193.077 117 184.695 117Z" fill="black"/>
<path d="M249.367 117C243.34 117 238.537 115.446 234.958 112.339C231.474 109.138 229.732 104.806 229.732 99.3449C229.732 95.1076 230.674 91.6708 232.557 89.0343C234.535 86.3036 237.03 84.0908 240.044 82.3959C243.151 80.701 246.447 79.2886 249.932 78.1587C253.416 76.9346 256.665 75.8047 259.678 74.7689C262.786 73.639 265.329 72.3207 267.306 70.8141C269.284 69.3076 270.273 67.3773 270.273 65.0233V58.2437C270.273 54.1006 269.284 50.9462 267.306 48.7805C265.423 46.6148 262.692 45.532 259.113 45.532C256.476 45.532 254.358 45.9557 252.757 46.8032C251.156 47.5564 250.355 48.6864 250.355 50.1929C250.355 51.5112 250.779 52.7824 251.627 54.0065C252.474 55.2305 253.322 56.5488 254.169 57.9612C255.017 59.2795 255.441 60.786 255.441 62.4809C255.441 64.8349 254.405 66.7182 252.333 68.1306C250.355 69.543 247.766 70.2492 244.564 70.2492C240.985 70.2492 238.113 69.2605 235.947 67.2831C233.875 65.3057 232.84 62.5751 232.84 59.0911C232.84 55.1364 234.205 51.7466 236.936 48.9218C239.761 46.0028 243.716 43.7429 248.802 42.1422C253.887 40.5415 259.82 39.7411 266.6 39.7411C273.569 39.7411 279.172 40.6356 283.409 42.4247C287.647 44.1196 290.755 46.9915 292.732 51.0404C294.71 54.9951 295.699 60.4565 295.699 67.4244V103.017C295.699 105.089 295.981 106.548 296.546 107.396C297.111 108.243 298.053 108.667 299.371 108.667C300.313 108.667 301.255 108.478 302.197 108.102C303.138 107.725 321.776 89.1591 323 88.5C320.552 90.4774 307.5 114.5 302.5 114.5C299.5 115.5 290.99 117 286.658 117C276.205 117 270.79 113.422 270.414 106.266C267.871 109.844 264.858 112.527 261.373 114.316C257.889 116.105 253.887 117 249.367 117ZM262.221 104.712C263.822 104.712 265.281 104.43 266.6 103.865C268.012 103.205 269.237 102.17 270.273 100.757V73.2152C269.613 74.6277 268.672 75.8988 267.447 77.0288C266.223 78.1587 264.858 79.2886 263.351 80.4185C261.844 81.4543 260.385 82.6313 258.972 83.9496C257.654 85.1737 256.524 86.6802 255.582 88.4693C254.734 90.2584 254.311 92.4711 254.311 95.1076C254.311 98.1208 254.97 100.475 256.288 102.17C257.701 103.865 259.678 104.712 262.221 104.712Z" fill="black"/>
<path d="M213.284 18.5102C214.018 21.4093 213.434 24.1154 211.531 26.6288C209.721 29.2126 207.284 30.8828 204.221 31.6394C201.322 32.3734 198.226 32.5928 194.935 32.2975C191.807 31.9797 187.966 31.6352 183.414 31.2641C178.932 30.7999 173.093 30.7732 165.898 31.184L165.314 28.7644C172.031 25.5025 177.206 22.5371 180.839 19.8682C184.541 17.1062 187.681 14.797 190.259 12.9406C192.836 11.0842 195.668 9.8595 198.753 9.26645C201.582 8.62552 204.487 9.14087 207.469 10.8125C210.615 12.4615 212.553 15.0274 213.284 18.5102Z" fill="#5B24FF"/>
</svg>
